<svg xmlns="http://www.w3.org/2000/svg" viewBox="0 0 500 80" fill="currentColor">
  <path d="M0 78V2h21.5l16.7 52.7L55 2h21.5v76H59V22L40.7 78H27L8.6 22v56H0zM134.7 78l-5.8-16.9h-27.6L95.5 78H77l28-77h20l28 77h-18.3zm-19.9-59.3l-9.5 28.8h19l-9.5-28.8zM160.2 78V2h35c14.3 0 23.3 8.2 23.3 21.7 0 10.4-5.5 18.1-15 21L223 78h-20.3l-16.2-32.6h-8.5V78h-17zm17-45.3h15.7c6.1 0 9.8-3.6 9.8-9s-3.7-9-9.8-9h-15.7v18zM229 78V2h35c14.3 0 23.3 8.2 23.3 21.7 0 10.4-5.5 18.1-15 21L291.8 78h-20.3L255.3 45.4h-8.5V78H229zm17-45.3h15.7c6.1 0 9.8-3.6 9.8-9s-3.7-9-9.8-9H246v18zM296.7 78V2h17v76h-17zM323 40c0-23.6 17.8-40.2 41.8-40.2S406.7 16.4 406.7 40s-17.8 40.2-41.9 40.2S323 63.6 323 40zm66.2 0c0-14.8-10.4-25.4-24.4-25.4S340.5 25.2 340.5 40s10.4 25.4 24.3 25.4 24.4-10.6 24.4-25.4zM418.6 78V16h-23.3V2h63.5v14h-23.3v62h-16.9zM467.3 78V16H444V2h63.5v14h-23.3v62h-16.9z"/>
</svg>
